<svg xmlns="http://www.w3.org/2000/svg" viewBox="0 0 106.61 100.1"><defs><style>.cls-1{fill:#83dee2;}</style></defs><title>Asset 1</title><g id="Layer_2" data-name="Layer 2"><g id="Layer_1-2" data-name="Layer 1"><path class="cls-1" d="M75.31,0a38.64,38.64,0,0,1,27.6,11.8c1.1,1.2,3.7,3.7,3.6,6.3s-2.3,5.3-6.2,6.4a9.69,9.69,0,0,1-2.3.3c-2.1,0-4.1-1-6.1-3q-7.65-7.5-16.8-7.5c-5.1,0-10.3,1.8-15.3,5.5-1.7,1.3-3.4,2.6-4.9,3.9-1.8,1.5-3.5,2.9-5.3,4.2-7.1,4.9-14.3,7.4-21.6,7.4-10,0-19.2-4.8-26.6-13.9a6.14,6.14,0,0,1-1.2-5.5A7.41,7.41,0,0,1,4,11.2a7.3,7.3,0,0,1,3.5-.9c2.4,0,4.9,1.3,7,3.7,2.7,3,7.1,7,13.3,7,3.6,0,7.3-1.3,11.7-4.2,2.5-1.6,4.7-3.4,6.9-5.1,1.2-1,2.5-2,3.7-3A42.06,42.06,0,0,1,75.31,0m0,31.7a41.56,41.56,0,0,0-25.1,8.7c-1.3.9-2.5,2-3.7,3-2.2,1.7-4.4,3.5-6.9,5.1-4.4,2.8-8.1,4.2-11.7,4.2-6.2,0-10.5-4-13.3-7-2.2-2.4-4.7-3.7-7-3.7a7.91,7.91,0,0,0-3.5.9,7.41,7.41,0,0,0-3.8,4.7,6.07,6.07,0,0,0,1.2,5.5C8.91,62.2,18.11,67,28.11,67c7.2,0,14.5-2.5,21.6-7.4,1.8-1.3,3.5-2.7,5.3-4.2,1.6-1.3,3.2-2.6,4.9-3.9,5-3.6,10.2-5.5,15.3-5.5q9.15,0,16.8,7.5c2.1,2,4.1,3,6.1,3a9.69,9.69,0,0,0,2.3-.3c3.9-1.1,6.1-3.8,6.2-6.4s-2.5-5.1-3.6-6.3a39,39,0,0,0-27.7-11.8m0,33.1a41.56,41.56,0,0,0-25.1,8.7c-1.3.9-2.5,2-3.7,3-2.2,1.7-4.4,3.5-6.9,5.1-4.4,2.8-8.1,4.2-11.7,4.2-6.2,0-10.5-4-13.3-7-2.2-2.4-4.7-3.7-7-3.7a7.91,7.91,0,0,0-3.5.9,7.41,7.41,0,0,0-3.8,4.7,6.07,6.07,0,0,0,1.2,5.5c7.4,9.1,16.6,13.9,26.6,13.9,7.2,0,14.5-2.5,21.6-7.4,1.8-1.3,3.5-2.7,5.3-4.2,1.6-1.3,3.2-2.6,4.9-3.9,5-3.6,10.2-5.5,15.3-5.5q9.15,0,16.8,7.5c2.1,2,4.1,3,6.1,3a9.69,9.69,0,0,0,2.3-.3c3.9-1.1,6.1-3.8,6.2-6.4s-2.5-5.1-3.6-6.3a39,39,0,0,0-27.7-11.8"/></g></g></svg>