<?xml version="1.0" encoding="UTF-8"?>
<svg width="228px" height="44px" viewBox="0 0 228 44" version="1.1" xmlns="http://www.w3.org/2000/svg" xmlns:xlink="http://www.w3.org/1999/xlink">
    <!-- Generator: Sketch 55.1 (78136) - https://sketchapp.com -->
    <title>Ribbon (1) Copy 3@1,5x</title>
    <desc>Created with Sketch.</desc>
    <g id="Page-1" stroke="none" stroke-width="1" fill="none" fill-rule="evenodd">
        <g id="Artboard" transform="translate(-528.000000, -735.000000)" fill-rule="nonzero">
            <g id="Ribbon-(1)-Copy-3" transform="translate(528.000000, 735.000000)">
                <rect id="Rectangle" fill="#8ECA43" x="18.18" y="10.39" width="191.54" height="33.56"></rect>
                <path d="M25.93,10.39 L18.18,10.39 L21.76,5.84 C23.1066667,7.38666667 24.4966667,8.90333333 25.93,10.39 Z M201.69,10.39 L209.69,10.39 L206,5.72 C204.586667,7.31333333 203.15,8.87 201.69,10.39 Z" id="Shape" fill="#76AB39"></path>
                <path d="M21.76,5.84 L18.18,10.39 L18.18,33.18 L0,33.18 L10.92,16.59 L0,0 L17,0 C18.51,2 20.1,3.94 21.76,5.84 Z M210.65,0 C209.14,2 207.56,3.86 205.95,5.72 L209.73,10.39 L209.73,33.18 L227.91,33.18 L217,16.59 L227.91,0 L210.65,0 Z" id="Shape" fill="#AEDC85"></path>
            </g>
        </g>
    </g>
</svg>