<svg xmlns="http://www.w3.org/2000/svg" viewBox="0 0 71.75 156.04"><defs><style>.cls-1{fill:#83dee2;}.cls-2{fill:#44ccdc;}</style></defs><title>Asset 3</title><g id="Layer_2" data-name="Layer 2"><g id="Layer_1-2" data-name="Layer 1"><g id="temp"><path id="thermometer_outer" data-name="thermometer outer" class="cls-1" d="M59,92.81A7.65,7.65,0,0,1,55.9,86C56,75,56,64,56,53h-.2c0-11.5.3-23-.1-34.5-.5-12.6-12.8-21.1-25-17.8-9.3,2.5-14.8,9.9-14.8,20.3-.1,21.9-.1,43.7,0,65.6a6.84,6.84,0,0,1-2.6,5.9c-11.4,9.6-15.5,22-12.2,36.4a35.2,35.2,0,0,0,31.2,27c16.3,1.3,30.8-7.3,36.9-22C74.9,119.71,70.8,102.61,59,92.81Zm-2.3,39.1a24,24,0,0,1-33,8.8c-15.7-9.2-15.6-32.3.2-41.3,2.6-1.5,3.4-3.1,3.4-6q-.15-35.85,0-71.8c0-5.1,2.2-8.4,6.3-9.3,5.9-1.4,10.5,2.2,10.6,8.3.1,12.3,0,24.6,0,36.8,0,12,.1,24,0,36.1,0,2.7.7,4.2,3.3,5.7C59.6,106.11,63.5,120.31,56.7,131.91Z"/><path id="thermometer_inner" data-name="thermometer inner" class="cls-2" d="M41.1,103.41c-3-.9-3.7-2.2-3.7-5,.2-7.4.1-14.8.1-22.2h0c0-8.1.1-16.1-.1-24.2a6.27,6.27,0,0,0-1.5-3.2c-.1-.2-1.7.2-1.9.6a9.12,9.12,0,0,0-.5,3.3c0,15.3-.1,30.7,0,46,0,2.5-.5,3.7-3.2,4.6a17.71,17.71,0,0,0-11.8,21.9c2.1,7.7,9.7,13.4,17.4,12.9A18.17,18.17,0,0,0,53,122.31C54.1,114.31,49,105.81,41.1,103.41Z"/></g></g></g></svg>