<svg xmlns="http://www.w3.org/2000/svg" viewBox="0 0 86.1 109.9">
  <g data-name="Layer 2">
    <g data-name="Layer 1">
      <path d="M58.7 77c2.1.9 4.1 1.7 6 2.5C62.2 87 53 92.8 43.4 93s-19-5.6-21.9-13.4c2-.9 4-1.7 6.1-2.6 3.4 6.3 8.8 9.2 15.6 9.2s12.1-2.8 15.5-9.2zm24.5-16.3c0 .1.4.2.6.3a2.92 2.92 0 0 0 .2-.9c0-.1-.4-.2-.7-.3a1.41 1.41 0 0 0-.1.9zm-40 49.2H43a43.13 43.13 0 0 1-43-43V41.5A41.65 41.65 0 0 1 41.5 0h3.1a41.65 41.65 0 0 1 41.5 41.5V67a42.89 42.89 0 0 1-42.9 42.9zM72 89.5c7.1-8.5 8.8-18.6 8.2-27.8 0-4.6-.1-7.7 0-10.8.1-1.8-.6-2.4-2.2-2.7-10.5-2-19.7-6.4-26.8-14.6-1.2-1.4-2-1.3-3.2.1a44.78 44.78 0 0 1-15.8 11.4 54 54 0 0 1-23.1 4.4c-1.3 0-3.3-.8-3.2 1.8.4 7.9-.9 15.8 1.1 23.6 3.9 15 13.4 24.5 28.3 27.7 14.6 3.2 27.1-1.5 36.7-13.1zM25.1 52.7a6.7 6.7 0 1 0 6.7 6.7 6.7 6.7 0 0 0-6.7-6.7zm36 0a6.7 6.7 0 1 0 6.7 6.7 6.7 6.7 0 0 0-6.7-6.7z" data-name="Layer 3"/>
    </g>
  </g>
</svg>
