<svg xmlns="http://www.w3.org/2000/svg" viewBox="0 0 106.8 110.09">
  <g data-name="Layer 2">
    <g data-name="Layer 1">
      <path d="M43.71 60.89a5.77 5.77 0 0 1-6 5.7 5.59 5.59 0 0 1-5.7-5.5 5.83 5.83 0 0 1 5.7-6 5.91 5.91 0 0 1 6 5.8zm30.7 0a5.8 5.8 0 0 1-11.6 0 6 6 0 0 1 5.8-6 6.12 6.12 0 0 1 5.8 6zm25-10.8a14 14 0 0 1-5.7-8.1c-2.5-8.1-7.2-14.6-14.7-18.8-3.8-2.1-7.5-4.4-11.4-6.1-6.3-2.6-9.3-7.7-7.8-14.3.6-2.7-.8-3-2.8-2.7-8.4 1.4-13.8 6.3-17.1 14.1a7.47 7.47 0 0 1-3.4 3.8c-12.2 5.5-21.2 13.9-24.8 27.3a5.31 5.31 0 0 1-2.4 3.1c-5 2.7-7.7 7.1-8.8 12.3-2.2 10.2 3 20.4 11 22.6a3.67 3.67 0 0 1 1.9 1.8c8 17 21.9 24.3 39.2 25 16.8-.5 29.7-6.5 38.5-20.3a43 43 0 0 1 5.9-6.9c1.6-1.6 3.8-2.6 5.2-4.3 6.2-7.59 6.9-21.59-2.8-28.5zm-88 6.4c6.8-.4 6.6-6 7.9-10.4 2.8-9.8 9.5-15.9 18.3-20.2 1.4-.7 1.9-.2 2.8.9 6 7.5 20.4 7.4 26.4-.2 1.4-1.8 2.2-.5 3.2-.1 11.1 4.2 15.9 13.3 18.4 24.1.7 3.1 1.8 4.9 5.2 5.1a3.38 3.38 0 0 1 3 2.4c-8 4.9-16 9.8-23.9 14.9-1.3.8-1.9.3-2.8-.4a17.11 17.11 0 0 0-10-3.3c-4.5-.1-9-.1-13.6 0a17.35 17.35 0 0 0-10 3.3c-.7.5-1.2 1.3-2.4.5-7.7-4.9-15.4-9.6-23.1-14.4-2-1.1 0-2.1.6-2.2zm57.3 25.8c0 10.6-1.3 12-8.8 12.7-3.3.3-10.6.6-14.6-.6-4.8-1.3-7-3.2-7.1-8.1v-3.6c0-6.4 2.4-9.1 8.8-9.5a101.24 101.24 0 0 1 13.5.1c6 .5 8.2 3.1 8.2 9zm-46.2 5c-1.7-2.4-2.6-5.3-3.8-8a4.8 4.8 0 0 0-4-3.1c-5.5-.8-9.4-7.7-7.4-13 .7-2 1.8-.6 2.4-.2 5.2 3.3 10.3 6.7 15.4 10.1 1.2.8 1.6 1.2 3.5 2.4 3.2 2.1 5.1 1.6 5 8.5 0 1.9.6 4.6-2.4 6.2-4.4 2.2-4.6 3.1-8.7-2.9zm51.3 10.1c-11.7 8.1-32.3 7.2-43.4-1.7 2.9-2.2 4-3.4 4.8-2.7 1.4 1 2 2.7 4.7 3.8 4.9 2.1 22.4 4.6 30.3-1.9 2.3-1.9 3.1-1.7 5.2-.3 1.59 1.1-.8 2.3-1.6 2.8zm22.6-23c-.9 1.1-1.8 1.9-3.3 1.7-3.2-.4-5 1.7-5.7 4.3-.9 3.5-2.9 6.2-4.9 9-.5.8-1.1 1.9-2 2.2a1.84 1.84 0 0 1-2.2.3c-2.4-1.4-5.2-1.7-5-5.5 0-1.1-.1-2.2 0-3.7 0-.3.1-.7.1-1-.4-2.7 1.5-4.5 4.4-6.3 6.3-3.7 12.3-7.9 18.3-12.1 2.6-1.8 3.2-.8 3.3 1.8a13.87 13.87 0 0 1-3 9.3zm-51.5 2.4c-.9 0-2.1.2-2 1.5.1 1 1.1 1.1 2 1.1h17.2c.8 0 1.8-.2 1.8-1.3s-.9-1.3-1.8-1.3c-5.7-.1-11.5-.1-17.2 0zm16.7 11.8h-16.4c-.9 0-2.2-.1-2.3 1.1S44.11 91 45 91h16.8c.9 0 2.2-.1 2.1-1.3s-1.39-1.11-2.29-1.11zm-16.8-3.4h17.1c.9 0 1.9-.2 2-1.1.1-1.3-1.1-1.3-2-1.3h-17c-.8 0-1.9.2-1.8 1.2-.2 1.01.8 1.2 1.7 1.2z" data-name="Layer 3"/>
    </g>
  </g>
</svg>
