<svg xmlns="http://www.w3.org/2000/svg" viewBox="0 0 86.17 109.88">
  <g data-name="Layer 2">
    <g data-name="Layer 1">
      <path d="M80.43 77.22a29.55 29.55 0 0 0-3.8-2.3c-1.9-.8-2-1.8-1.1-3.6 6.7-13 10.3-26.6 8.2-41.3a32.36 32.36 0 0 0-8.8-18.7c-7.8-8.1-17.8-10.7-28.4-11.2a53 53 0 0 0-6.9 0c-1.7.1-3.4.2-5.1.4-20.7 2.3-32 15.3-32.7 35.6A66.51 66.51 0 0 0 9 68.22c2.7 5.6 2.6 5.6-2.5 8.8-.6.4-1.3.8-1.9 1.2-3.8 2.3-5.8 7.9-3.9 11.9 2.5 5.4 5.1 10.7 9 15.3 3 3.5 7.5 5.4 11.2 4a32.33 32.33 0 0 0 5.8-3.1c3.2-2.1 7.1-3.6 7.3-8.3.1-1.7 1-1.2 1.9-.7a13.81 13.81 0 0 0 14.4.1c1.6-.9 1.9-.4 2.1 1.1a7.59 7.59 0 0 0 3.9 5.5c3 1.7 6 3.5 9 5a6.43 6.43 0 0 0 6.8-.4c7.9-4.7 11.8-12.2 13.6-20.7 1.23-5.92.13-7.5-5.27-10.7zm-1.8 12.3A4.8 4.8 0 0 1 79 88a4.49 4.49 0 0 1 .6-1.2c.6-.6 1.2-.7 2 .1 1 1.1-.4 2.6-1.5 3.3-1.77 1.12-1.47-.08-1.47-.68zm-.4-.8c-.3 1.2-.7 2.2-2.1 2.3-.6.1-.7-.5-.6-.9.4-1.4 1.3-3.3 2.2-2.7s.6.9.5 1.3zm-3.3-53.3a169.67 169.67 0 0 0-31.8-3.1 162 162 0 0 0-31.9 3.2c10.7-9.6 51.6-10 63.7-.1zm-70.5 51.5c.2-.7 1-.7 1.5-.3s.5.4 1.1 1.3a2.41 2.41 0 0 1 .4 1.5c0 .9-.4 2-1.8.8-.8-1-1.63-2-1.2-3.3zm-.5 4.3c-.2-.6.3-1 .9-.9.9.2 1.2 1 1.3 1.9 0 .4-.1.9-.7.8a2.16 2.16 0 0 1-1.5-1.8zm3.3 7.2a1.86 1.86 0 0 1-1.7-1.9c0-.5-.2-1.2.5-1.2 1.3 0 1.6 1 1.8 2 .3.68 0 1.1-.6 1.1zm3.3 4.6c-1.2-.1-1.7-1.1-1.8-2.2-.1-.5 0-1.2.7-1.1a2.17 2.17 0 0 1 1.9 2.2c-.1.5-.1 1.2-.8 1.08zm-2.7-7.8a2.57 2.57 0 0 1 .4-2.8c.8-.5 1.4 0 2.2.6a11.09 11.09 0 0 1 1.2 1.6c.7 1.1 2.1 3.9.3 4.6-1.5.6-3.4-2.5-4.1-4zm.6-7.6c1.3-1.3 3.4 2.3 2.2 3.6-.8.9-2.3-1.1-2.6-2.2a1.42 1.42 0 0 1 .4-1.4zm3 3.6c.7-.7 2.1.1 2.9 1.1s1.3 2.2.5 3.1c-1.1 1.3-2-.4-2.4-.9-.2-.3-.7-.9-.8-1.1-.4-.7-.63-1.8-.2-2.2zm3.6 12.4c-1.1.8-2.3-.7-2.6-1.8-.5-1.7.6-1.8 1.6-1.6.5.1.7.3 1.1.9s1.1 1.7-.13 2.5zm1.6-3.9c-.9 1.2-1.9.5-2.3-.5 0 0-1.1-1.5-.2-2.3a1.88 1.88 0 0 1 1.9.2c.5.8 1.2 1.88.6 2.6zm12.1-12.1c-1 .5-1.4-.6-1.9-1.2-.3-.3-.4-1-1.1-.8.8 4.4.6 4.8-3.1 6.2-2.2.9-4 .5-5.1-1.6a26.61 26.61 0 0 0-9.7-10.3c2.7-1.6 4.9-3.8 8.2-2.6q1 .45.9-.6c-.1-2.7 1.6-1.9 2.9-1.5 4.8 1.5 7.4 5.3 9.5 9.5.4 1.1.5 2.28-.6 2.9zm14.5.4c-1.9.1-4.7.3-4.7-1.8s2.9-1.8 4.6-1.8c2 0 4.7-.1 4.7 1.9s-2.9 1.6-4.6 1.68zm6-7a13.81 13.81 0 0 1-6.4 1.2 11.45 11.45 0 0 1-6-1.3c-1.4-.8-1.6-1.7 0-2.4 4.2-2.2 8.5-1.8 12.6.1 1.7.8 1.1 1.8-.2 2.38zm-10.9-7.8c.1-1.5 2.1-1.7 3-1.7a15.48 15.48 0 0 1 2.1-.1c1.7 0 4.1.1 4.2 1.9 0 1.6-2 1.7-3.5 1.9a14.08 14.08 0 0 1-2.9-.1c-1.1-.2-3-.12-2.9-1.9zm13.9-10.6a6.43 6.43 0 0 1-2.5-1.2 6.46 6.46 0 0 1-2.6-2.8c-1.5-3-5-3.5-7-.9-4.1 5.7-9.5 6.4-15.7 4.7-6.4-1.7-10.5-5.8-11.7-12.4-1-5.2.6-7.8 5.6-9.4a40.64 40.64 0 0 1 12.9-1.8c10.2-.1 20.4-.6 30.5.6a32.09 32.09 0 0 1 4.3.7c7.8 2.2 9.2 5.3 6.1 13.7-2.7 7.6-12.5 10.9-19.9 8.8zm11 29.1c-2.5-1.1-4.1-2.5-2.4-5.4.1-.1-.1-.4-.1-.5-.3-.2-.5-.3-.8 0-.8.8-1.1 2.8-2.6 1.9s-.6-2.5.1-3.6c1.7-3 3.7-5.8 6.8-7.6a7.5 7.5 0 0 1 4.4-1.2c1.8.2 2.9.2-.7 2.8 4.4-1.5 6.7-.5 9 .8 1.5.9 1.5 1.5.1 2.3a21.76 21.76 0 0 0-7.7 8.5c-1.6 2.6-3.5 3.1-6.1 2zm11.5.7a4.57 4.57 0 0 1-2.4 3.4c-.7.3-1-.7-.9-1.2.3-1.4.9-2.8 2.5-3.3a.88.88 0 0 1 .8 1.1zm-4.8 7.4a3.07 3.07 0 0 1 1.4-2.2 1.1 1.1 0 0 1 .8 0c.6.8.2 1.6-.2 2.3-.3.4-.5.5-.5.6-.43.4-1.7.8-1.5-.7zm2.4 4c-.4.3-1.3.9-1.5.2a2.76 2.76 0 0 1 .7-2.4c.1-.1.2-.4.4-.5.6-.5 1.2-1 1.6-.2a2.49 2.49 0 0 1-1.2 2.9zm2.8-.9c-.3.1-.6-.3-.6-.5-.1-1.5 1.7-3.5 2.4-3s-.4 3-1.8 3.5zm.2-4.6c-.9.3-1.1-.7-1-1.5.2-1.3.6-3.7 2.7-4.3 1.1 0 1.8.4 1.5 1.2-.53 1.7-1.1 3.9-3.2 4.6zm3 .3c-.8-.4.3-2.7 1.2-3.2a.61.61 0 0 1 .9.5c0 1.08-1.3 3.08-2.1 2.7zm4.1-7.5c-.2 1.1-.6 2.2-1.8 2.5-.6.1-1.1-.2-1-.8a3.4 3.4 0 0 1 1.9-2.6.73.73 0 0 1 .9.9zM34 49.52a6 6 0 1 1-6-6 6 6 0 0 1 6 6zm24.4-5.9a6 6 0 1 0 6 6 6.08 6.08 0 0 0-5.97-6z" data-name="Layer 3"/>
    </g>
  </g>
</svg>
