<svg xmlns="http://www.w3.org/2000/svg" viewBox="0 0 86.1 109.9">
  <g data-name="Layer 2">
    <g data-name="Layer 1">
      <path d="M83.3 59.7c.3.1.7.2.7.3 0 .3-.2.6-.2.9-.2-.1-.6-.2-.6-.3s0-.5.1-.9zm-61 15.1c-2 0-2.5.6-2.2 2.5 1.6 10.9 11.7 19.4 23.4 19.3 11.2-.1 21.2-8.9 22.6-19.7.3-2.2-.6-2.2-2.1-2.1H43.6c-7.2 0-14.3.1-21.3 0zm20.9 35.1H43a43.13 43.13 0 0 1-43-43V41.5A41.65 41.65 0 0 1 41.5 0h3.1a41.65 41.65 0 0 1 41.5 41.5V67a42.89 42.89 0 0 1-42.9 42.9zM72 89.5c7.1-8.5 8.8-18.6 8.2-27.8 0-4.6-.1-7.7 0-10.8.1-1.8-.6-2.4-2.2-2.7-10.5-2-19.7-6.4-26.8-14.6-1.2-1.4-2-1.3-3.2.1a44.78 44.78 0 0 1-15.8 11.4 54 54 0 0 1-23.1 4.4c-1.3 0-3.3-.8-3.2 1.8.4 7.9-.9 15.8 1.1 23.6 3.9 15 13.4 24.5 28.3 27.7 14.6 3.2 27.1-1.5 36.7-13.1zM14.2 61.3c-.5 1-.4 1.7.7 2.1a22.07 22.07 0 0 1 2.7 1.2c1.4.9 2.1.7 2.9-.8a6.57 6.57 0 0 1 5.7-3.7c3.1-.1 5 1.6 6.4 4.1.4.7.7 1.4 1.8.9 1.3-.7 2.7-1.3 4-2 .6-.3.8-.7.5-1.3-2.2-4.7-6.7-8.5-12.4-8.3a13.12 13.12 0 0 0-12.3 7.8zm33.2 0c-.5 1-.4 1.7.7 2.1a22.07 22.07 0 0 1 2.7 1.2c1.4.9 2.1.7 2.9-.8a6.57 6.57 0 0 1 5.7-3.7c3.1-.1 5 1.6 6.4 4.1.4.7.7 1.4 1.8.9 1.3-.7 2.7-1.3 4-2 .6-.3.8-.7.5-1.3-2.2-4.7-6.7-8.5-12.4-8.3a13.12 13.12 0 0 0-12.3 7.8z" data-name="Layer 3"/>
    </g>
  </g>
</svg>
