<svg xmlns="http://www.w3.org/2000/svg" viewBox="0 0 119.43 86.49">
  <g data-name="Layer 2">
    <g data-name="Layer 1">
      <path d="M90.32 54c2.2-2.9 4.6-5.7 4.8-9.5 0-.7.4-1.5.2-2.1-.9-2.9-.4-4.9 2.6-6.4 1.9-1 1.3-3.3 1.7-5 .5-2.8 1.7-4.8 4.7-5.8 2.8-.9 5-.1 7.1 1.6a5.64 5.64 0 0 1 2.1 5.5c-.4 2.1.4 2.7 2.1 3.5a7 7 0 0 1 3.2 9.1c-1.7 3.6-5.4 5.5-8.8 3.7-3.6-1.8-6.5-1.3-9.7.7-2.9 1.8-6 3.4-9 5-.2.07-.5-.13-1-.3zm-80.8-5.4c3.8-2.3 6.9-1 10.2 1.1 2.8 1.8 5.9 3.2 8.9 4.9.2-1.3-.5-1.7-.9-2.3-2.7-3.7-5-7.5-3-12.4.4-1-.2-1.6-1-2-3-1.4-3.9-3.8-3.9-7s-3.1-5.7-6.3-6.1a6.25 6.25 0 0 0-7.1 4.9c-.6 2.9-.2 6.2-4.2 7-.8.2-1.5 1.8-1.7 2.4a7.29 7.29 0 0 0 3.1 9 5.14 5.14 0 0 0 5.9.47zm88.4 14.5c-2.6 1.4-4.7 1.4-7-.5-.7-.6-2.1-1.4-2.1.3 0 3.9-2 6.5-4.8 8.7-.8.6-1.1 1.5.1 1.8 3.4 1.1 4.2 3.6 4.4 6.8a6.67 6.67 0 0 0 8.1 6 6.8 6.8 0 0 0 5.9-8.4c-.2-1.19-.3-1.39 1-1.8a6.61 6.61 0 0 0 4.9-6.6c.2-5.23-5.7-8.93-10.5-6.33zm-86.8 4.5c-.8 3.3.4 6.8 3.5 8 2 .8 2.3 1.8 2.3 3.7-.1 4.4 2.4 7 6.6 7.2a6.73 6.73 0 0 0 7.2-6.6c.1-2.8 1.2-5 3.9-6 2-.8 1.4-1.5.3-2.5-2.2-1.9-4.2-4-4.4-7.1-.2-2.4-1.1-2.2-2.6-1.2a5.26 5.26 0 0 1-6.5.1 4.83 4.83 0 0 0-3.1-.8c-3.7-.13-6.4 1.87-7.2 5.17zm78.2-17.8c-4 3.3-4 7.2-3.7 11.4a9 9 0 0 1-3.5 7.9c-4 3.4-7.7 7-11.5 10.6-5.6 5.3-15.5 5.7-21.2.6-4.5-4-8.9-8.19-13.3-12.3a6.58 6.58 0 0 1-2.3-5.39c.1-1.31-.2-2.7 0-4 .5-3.31-.6-5.6-3.1-8-4.2-3.9-4.4-7.4-1.4-12.5.7-1.1 0-2.2-.3-3-5.6-14.9 4.8-29.1 19.1-33.31a48.9 48.9 0 0 1 7.4-1.62 34.09 34.09 0 0 1 7.8.09c8 1 16 4.1 22.1 10.41s8.4 17 4.8 25c-.6 1.4-.6 2.09.5 3.19 2.28 2.6 2.1 8-1.4 10.9zm-4-8.7l-3.1-.7c1-1.9 1.9-3.5 2.6-5.1 3.3-7.9 3-14.2-3.2-21.1-4.1-4.5-9.5-6.8-15.4-8.1-11-2.5-20.5.3-28.4 8-4.3 4.2-6.5 9.5-5.3 15.6a25.83 25.83 0 0 0 3.5 8.4c.9 1.5 1.2 2.4-1.2 2.6-2 .2-3.4 1.5-2.1 3.6 2 3.3 3.9 6.8 8.6 6.8 2.6 0 3.7 1.9 3.7 4.3a45.1 45.1 0 0 0 0 5.2c.2 1.3.3 2.5 1.8 3.6 5.2 3.5 10.8 4.1 16.7 3.2 9.4-1.4 11-2.7 10.8-12.3 0-2.2 1-4 3.4-4 4.8-.1 6.8-3.5 8.9-6.9.9-1.43.7-2.63-1.3-3.13zm-5.8.6c.4-2.9-1-5.3-3.7-5.7-2.5-.4-4.9-1-7.6-.6-3.5.6-4.8 2.1-4.1 5.6.9 4.6 4.2 6.8 9.8 6.9 3.8-.03 4.8-1.13 5.6-6.23zm-24.1-2.6c-.2-2.4-1.4-3.6-3.7-3.7s-4.7.3-7 .4c-3.3.2-5.1 2-5 4.9.1 4.8 1.9 7.1 5.6 7.1 6.4.07 10.4-3.33 10.1-8.73zm6.7 7.6c-1.8-2.1-3.3-2.2-4.9 0-1.8 2.5-3.1 5.2-2.8 8.5.2 2.3 2.7 4.7 4.9 4.6 3.7-.19 6-2.1 6-5.19-.6-2.74-1.2-5.61-3.2-7.94z" data-name="Layer 3"/>
    </g>
  </g>
</svg>
