<svg xmlns="http://www.w3.org/2000/svg" viewBox="0 0 86.2 110">
  <g data-name="Layer 2">
    <g data-name="Layer 1">
      <path d="M31.7 59.5a6.7 6.7 0 1 1-6.7-6.7 6.7 6.7 0 0 1 6.7 6.7zM61 52.8a6.7 6.7 0 1 0 6.7 6.7 6.7 6.7 0 0 0-6.7-6.7zM44.6 0h-3.1A41.65 41.65 0 0 0 0 41.5V67a43.13 43.13 0 0 0 43 43h.2a43.13 43.13 0 0 0 43-43V41.6A41.83 41.83 0 0 0 44.6 0zM6.9 75a30.14 30.14 0 0 1-1-6.6c3.6 1.9 8.3 4.5 11.8 6.3A2.16 2.16 0 0 1 19 77v1.9c0 3.3.3 6.2-.1 9.3-.2 2.1-2.5 1.9-4.7 1.9A38 38 0 0 1 6.9 75zm28.3 27.7a36.63 36.63 0 0 1-18.4-9.6c.1 0 .2-.1.4-.1 2.1-.7 3.7-.6 5.4 1.3 3 3.3 7.2 4.4 11.4 4.8a105.8 105.8 0 0 0 17.8 0c4.8-.4 9.3-2.1 12.6-6 1.4-1.6 2.9-.4 4.4-.1-9.3 9.1-20.6 12.6-33.6 9.7zM25 84.9v-5.5c0-5 2.2-7.7 7.2-8.6a60.86 60.86 0 0 1 21.7 0c4.9.9 7 4 7 9v5.5c0 6-3.1 9-9.2 9.5-2.9.2-5.9 0-8.9 0-2.8 0-5.7.2-8.5 0q-9.15-.75-9.3-9.9zm46.9 4.7c-.3.3-.5.6-.8.9a9.36 9.36 0 0 0-1.6-.4c-2.5-.5-3-1.7-3-4.2v-9.3c0-2.3 2-2.3 9-6.1 1.5-.8 3.1-1.5 4.7-2.3a36.12 36.12 0 0 1-8.3 21.4zm4.3-23.2c-3.1 1.6-6.3 3.1-9.4 4.8-1.4.8-2.3.8-3.5-.3a18.87 18.87 0 0 0-12.8-4.8c-5.2-.1-10.4-.1-15.7 0a18.82 18.82 0 0 0-12.5 4.5c-1.4 1.3-2.6 1.4-4.1.3-2-1.3-4.2-2.3-6.2-3.5-1.5-.9-4.3-3-6.3-3.2 0-4.3.3-8.6 0-12.9-.1-2.5 1.9-1.8 3.2-1.8A55.28 55.28 0 0 0 32 45.1a44.78 44.78 0 0 0 15.8-11.4c1.2-1.4 2.1-1.4 3.2-.1 7.1 8.2 16.3 12.6 26.8 14.6 1.6.3 2.3.9 2.2 2.7-.1 3.1 0 6.2 0 10.8.1 1 .1 2.1.1 3.1a32 32 0 0 0-3.9 1.6zm-43 24.5c-1 0-2.4-.1-2.4-1.3-.1-1.5 1.4-1.6 2.5-1.6H53c1 0 2.3.1 2.2 1.5s-1.3 1.4-2.3 1.4H33.2zm0-13.5c6.6.1 13.1.1 19.7 0 1.1 0 2.6-.2 2.4-1.7s-1.6-1.4-2.7-1.4H33.3c-1 0-2.3.2-2.4 1.4-.2 1.4 1.2 1.7 2.3 1.7zm-.1 6.7c3.3.1 6.6 0 9.9 0h10.2c1 0 2.2-.2 2.1-1.6-.1-1.1-1.2-1.3-2.1-1.3H33.1c-1 0-2.3.2-2.3 1.5s1.3 1.4 2.3 1.4z" data-name="Layer 3"/>
    </g>
  </g>
</svg>
